<svg width="900" height="720" viewBox="0 0 900 720" fill="none" xmlns="http://www.w3.org/2000/svg">
  <rect width="900" height="720" rx="36" fill="#F7F2EA"/>
  <rect x="46" y="52" width="808" height="616" rx="28" fill="#17382F"/>
  <rect x="86" y="92" width="728" height="536" rx="22" fill="#F4E9D8"/>
  <rect x="86" y="92" width="728" height="108" rx="22" fill="#E6D9C3"/>
  <rect x="126" y="126" width="136" height="38" rx="10" fill="#17382F" fill-opacity="0.12"/>
  <rect x="594" y="118" width="176" height="54" rx="14" fill="#17382F" fill-opacity="0.1"/>
  <rect x="146" y="242" width="608" height="280" rx="28" fill="#E9DECD"/>
  <ellipse cx="448" cy="500" rx="190" ry="72" fill="#17382F" fill-opacity="0.1"/>
  <rect x="292" y="470" width="316" height="30" rx="15" fill="#17382F" fill-opacity="0.13"/>
  <circle cx="320" cy="372" r="44" fill="#17382F"/>
  <rect x="266" y="422" width="108" height="122" rx="42" fill="#17382F"/>
  <circle cx="544" cy="360" r="40" fill="#17382F"/>
  <rect x="496" y="406" width="96" height="118" rx="38" fill="#17382F"/>
  <rect x="188" y="278" width="148" height="86" rx="18" fill="#D8C6AB"/>
  <rect x="560" y="266" width="130" height="72" rx="18" fill="#D8C6AB"/>
  <rect x="376" y="252" width="140" height="64" rx="16" fill="#FCF8F2"/>
  <path d="M404 302C428 282 458 272 494 272C530 272 560 282 584 302" stroke="#17382F" stroke-opacity="0.18" stroke-width="7" stroke-linecap="round"/>
  <rect x="134" y="562" width="112" height="60" rx="16" fill="#D8C6AB"/>
  <rect x="654" y="562" width="112" height="60" rx="16" fill="#D8C6AB"/>
</svg>
